<mxfile host="app.diagrams.net" modified="2022-03-09T10:48:42.384Z" agent="5.0 (Windows)" etag="Ko7vXtBfyHhyRChF1LFD" version="17.0.0" type="github">
  <diagram id="ZRN7CmYmawFdVtozykcS" name="Page-1">
    <mxGraphModel dx="1013" dy="1120" grid="1" gridSize="10" guides="1" tooltips="1" connect="1" arrows="1" fold="1" page="1" pageScale="1" pageWidth="850" pageHeight="1100" math="0" shadow="0">
      <root>
        <mxCell id="0" />
        <mxCell id="1" parent="0" />
        <mxCell id="N--YdgX6oC7Mbpfn2w94-1" style="edgeStyle=orthogonalEdgeStyle;rounded=0;orthogonalLoop=1;jettySize=auto;html=1;exitX=0.855;exitY=0.145;exitDx=0;exitDy=0;exitPerimeter=0;entryX=0;entryY=0.5;entryDx=0;entryDy=0;fontSize=24;strokeWidth=3;" edge="1" parent="1" source="N--YdgX6oC7Mbpfn2w94-3" target="N--YdgX6oC7Mbpfn2w94-7">
          <mxGeometry relative="1" as="geometry" />
        </mxCell>
        <mxCell id="N--YdgX6oC7Mbpfn2w94-2" style="edgeStyle=orthogonalEdgeStyle;rounded=0;orthogonalLoop=1;jettySize=auto;html=1;exitX=0.855;exitY=0.855;exitDx=0;exitDy=0;exitPerimeter=0;entryX=0;entryY=0.5;entryDx=0;entryDy=0;fontSize=24;strokeWidth=3;" edge="1" parent="1" source="N--YdgX6oC7Mbpfn2w94-3" target="N--YdgX6oC7Mbpfn2w94-9">
          <mxGeometry relative="1" as="geometry" />
        </mxCell>
        <mxCell id="N--YdgX6oC7Mbpfn2w94-3" value="" style="strokeWidth=2;html=1;shape=mxgraph.flowchart.start_2;whiteSpace=wrap;" vertex="1" parent="1">
          <mxGeometry x="30" y="80" width="30" height="30" as="geometry" />
        </mxCell>
        <mxCell id="N--YdgX6oC7Mbpfn2w94-4" value="" style="strokeWidth=2;html=1;shape=mxgraph.flowchart.start_2;whiteSpace=wrap;" vertex="1" parent="1">
          <mxGeometry x="180" y="375" width="50" height="50" as="geometry" />
        </mxCell>
        <mxCell id="N--YdgX6oC7Mbpfn2w94-5" value="" style="strokeWidth=2;html=1;shape=mxgraph.flowchart.start_2;whiteSpace=wrap;fillColor=#000000;" vertex="1" parent="1">
          <mxGeometry x="190" y="385" width="30" height="30" as="geometry" />
        </mxCell>
        <mxCell id="N--YdgX6oC7Mbpfn2w94-6" style="edgeStyle=orthogonalEdgeStyle;rounded=0;orthogonalLoop=1;jettySize=auto;html=1;exitX=1;exitY=0.5;exitDx=0;exitDy=0;entryX=0;entryY=0.5;entryDx=0;entryDy=0;fontSize=24;strokeWidth=3;" edge="1" parent="1" source="N--YdgX6oC7Mbpfn2w94-7" target="N--YdgX6oC7Mbpfn2w94-11">
          <mxGeometry relative="1" as="geometry" />
        </mxCell>
        <mxCell id="N--YdgX6oC7Mbpfn2w94-7" value="&lt;div&gt;&lt;font size=&quot;3&quot;&gt;&lt;font style=&quot;font-size: 24px&quot;&gt;start_new_&lt;/font&gt;&lt;/font&gt;&lt;/div&gt;&lt;div&gt;&lt;font size=&quot;3&quot;&gt;&lt;font style=&quot;font-size: 24px&quot;&gt;game&lt;br&gt;&lt;/font&gt;&lt;/font&gt;&lt;/div&gt;" style="rounded=1;whiteSpace=wrap;html=1;fillColor=#FFFFFF;strokeWidth=3;" vertex="1" parent="1">
          <mxGeometry x="130" y="10" width="150" height="60" as="geometry" />
        </mxCell>
        <mxCell id="N--YdgX6oC7Mbpfn2w94-8" style="edgeStyle=orthogonalEdgeStyle;rounded=0;orthogonalLoop=1;jettySize=auto;html=1;exitX=1;exitY=0.5;exitDx=0;exitDy=0;entryX=0;entryY=0.5;entryDx=0;entryDy=0;fontSize=24;strokeWidth=3;" edge="1" parent="1" source="N--YdgX6oC7Mbpfn2w94-9" target="N--YdgX6oC7Mbpfn2w94-13">
          <mxGeometry relative="1" as="geometry" />
        </mxCell>
        <mxCell id="N--YdgX6oC7Mbpfn2w94-9" value="&lt;font size=&quot;3&quot;&gt;&lt;font style=&quot;font-size: 24px&quot;&gt;load_game&lt;/font&gt;&lt;/font&gt;" style="rounded=1;whiteSpace=wrap;html=1;fillColor=#FFFFFF;strokeWidth=3;" vertex="1" parent="1">
          <mxGeometry x="130" y="120" width="150" height="60" as="geometry" />
        </mxCell>
        <mxCell id="N--YdgX6oC7Mbpfn2w94-18" style="edgeStyle=orthogonalEdgeStyle;rounded=0;orthogonalLoop=1;jettySize=auto;html=1;exitX=1;exitY=0.5;exitDx=0;exitDy=0;entryX=0.5;entryY=0;entryDx=0;entryDy=0;entryPerimeter=0;strokeWidth=3;" edge="1" parent="1" source="N--YdgX6oC7Mbpfn2w94-11" target="N--YdgX6oC7Mbpfn2w94-16">
          <mxGeometry relative="1" as="geometry" />
        </mxCell>
        <mxCell id="N--YdgX6oC7Mbpfn2w94-11" value="&lt;div&gt;&lt;font size=&quot;3&quot;&gt;&lt;font style=&quot;font-size: 24px&quot;&gt;new_open_&lt;/font&gt;&lt;/font&gt;&lt;/div&gt;&lt;div&gt;&lt;font size=&quot;3&quot;&gt;&lt;font style=&quot;font-size: 24px&quot;&gt;world&lt;br&gt;&lt;/font&gt;&lt;/font&gt;&lt;/div&gt;" style="rounded=1;whiteSpace=wrap;html=1;fillColor=#FFFFFF;strokeWidth=3;" vertex="1" parent="1">
          <mxGeometry x="440" y="10" width="160" height="60" as="geometry" />
        </mxCell>
        <mxCell id="N--YdgX6oC7Mbpfn2w94-15" style="edgeStyle=orthogonalEdgeStyle;rounded=0;orthogonalLoop=1;jettySize=auto;html=1;exitX=1;exitY=0.5;exitDx=0;exitDy=0;entryX=0;entryY=0.5;entryDx=0;entryDy=0;strokeWidth=3;" edge="1" parent="1" source="N--YdgX6oC7Mbpfn2w94-13" target="N--YdgX6oC7Mbpfn2w94-14">
          <mxGeometry relative="1" as="geometry" />
        </mxCell>
        <mxCell id="N--YdgX6oC7Mbpfn2w94-13" value="&lt;div&gt;&lt;font size=&quot;3&quot;&gt;&lt;font style=&quot;font-size: 24px&quot;&gt;fetch_world_&lt;/font&gt;&lt;/font&gt;&lt;/div&gt;&lt;div&gt;&lt;font size=&quot;3&quot;&gt;&lt;font style=&quot;font-size: 24px&quot;&gt;data&lt;/font&gt;&lt;/font&gt;&lt;/div&gt;" style="rounded=1;whiteSpace=wrap;html=1;fillColor=#FFFFFF;strokeWidth=3;" vertex="1" parent="1">
          <mxGeometry x="340" y="120" width="160" height="60" as="geometry" />
        </mxCell>
        <mxCell id="N--YdgX6oC7Mbpfn2w94-17" style="edgeStyle=orthogonalEdgeStyle;rounded=0;orthogonalLoop=1;jettySize=auto;html=1;exitX=1;exitY=0.5;exitDx=0;exitDy=0;entryX=0;entryY=0.5;entryDx=0;entryDy=0;entryPerimeter=0;strokeWidth=3;" edge="1" parent="1" source="N--YdgX6oC7Mbpfn2w94-14" target="N--YdgX6oC7Mbpfn2w94-16">
          <mxGeometry relative="1" as="geometry" />
        </mxCell>
        <mxCell id="N--YdgX6oC7Mbpfn2w94-14" value="&lt;div&gt;&lt;font size=&quot;3&quot;&gt;&lt;font style=&quot;font-size: 24px&quot;&gt;load_game_&lt;/font&gt;&lt;/font&gt;&lt;/div&gt;&lt;div&gt;&lt;font size=&quot;3&quot;&gt;&lt;font style=&quot;font-size: 24px&quot;&gt;world&lt;/font&gt;&lt;/font&gt;&lt;/div&gt;" style="rounded=1;whiteSpace=wrap;html=1;fillColor=#FFFFFF;strokeWidth=3;" vertex="1" parent="1">
          <mxGeometry x="550" y="120" width="160" height="60" as="geometry" />
        </mxCell>
        <mxCell id="N--YdgX6oC7Mbpfn2w94-20" style="edgeStyle=orthogonalEdgeStyle;rounded=0;orthogonalLoop=1;jettySize=auto;html=1;exitX=0.5;exitY=1;exitDx=0;exitDy=0;exitPerimeter=0;entryX=1;entryY=0.5;entryDx=0;entryDy=0;strokeWidth=3;" edge="1" parent="1" source="N--YdgX6oC7Mbpfn2w94-16" target="N--YdgX6oC7Mbpfn2w94-19">
          <mxGeometry relative="1" as="geometry" />
        </mxCell>
        <mxCell id="N--YdgX6oC7Mbpfn2w94-16" value="" style="strokeWidth=2;html=1;shape=mxgraph.flowchart.start_2;whiteSpace=wrap;" vertex="1" parent="1">
          <mxGeometry x="780" y="135" width="30" height="30" as="geometry" />
        </mxCell>
        <mxCell id="N--YdgX6oC7Mbpfn2w94-22" style="edgeStyle=orthogonalEdgeStyle;rounded=0;orthogonalLoop=1;jettySize=auto;html=1;exitX=0;exitY=0.5;exitDx=0;exitDy=0;entryX=1;entryY=0.5;entryDx=0;entryDy=0;strokeWidth=3;" edge="1" parent="1" source="N--YdgX6oC7Mbpfn2w94-19" target="N--YdgX6oC7Mbpfn2w94-21">
          <mxGeometry relative="1" as="geometry" />
        </mxCell>
        <mxCell id="N--YdgX6oC7Mbpfn2w94-27" style="edgeStyle=orthogonalEdgeStyle;rounded=0;orthogonalLoop=1;jettySize=auto;html=1;exitX=0;exitY=0.75;exitDx=0;exitDy=0;entryX=1;entryY=0.5;entryDx=0;entryDy=0;strokeWidth=3;" edge="1" parent="1" source="N--YdgX6oC7Mbpfn2w94-19" target="N--YdgX6oC7Mbpfn2w94-23">
          <mxGeometry relative="1" as="geometry" />
        </mxCell>
        <mxCell id="N--YdgX6oC7Mbpfn2w94-28" style="edgeStyle=orthogonalEdgeStyle;rounded=0;orthogonalLoop=1;jettySize=auto;html=1;exitX=0;exitY=1;exitDx=0;exitDy=0;entryX=1;entryY=0.5;entryDx=0;entryDy=0;strokeWidth=3;" edge="1" parent="1" source="N--YdgX6oC7Mbpfn2w94-19" target="N--YdgX6oC7Mbpfn2w94-24">
          <mxGeometry relative="1" as="geometry" />
        </mxCell>
        <mxCell id="N--YdgX6oC7Mbpfn2w94-29" style="edgeStyle=orthogonalEdgeStyle;rounded=0;orthogonalLoop=1;jettySize=auto;html=1;exitX=0.25;exitY=1;exitDx=0;exitDy=0;entryX=1;entryY=0.5;entryDx=0;entryDy=0;strokeWidth=3;" edge="1" parent="1" source="N--YdgX6oC7Mbpfn2w94-19" target="N--YdgX6oC7Mbpfn2w94-25">
          <mxGeometry relative="1" as="geometry" />
        </mxCell>
        <mxCell id="N--YdgX6oC7Mbpfn2w94-30" style="edgeStyle=orthogonalEdgeStyle;rounded=0;orthogonalLoop=1;jettySize=auto;html=1;exitX=0.5;exitY=1;exitDx=0;exitDy=0;entryX=1;entryY=0.5;entryDx=0;entryDy=0;strokeWidth=3;" edge="1" parent="1" source="N--YdgX6oC7Mbpfn2w94-19" target="N--YdgX6oC7Mbpfn2w94-26">
          <mxGeometry relative="1" as="geometry" />
        </mxCell>
        <mxCell id="N--YdgX6oC7Mbpfn2w94-19" value="&lt;div&gt;&lt;font size=&quot;3&quot;&gt;&lt;font style=&quot;font-size: 24px&quot;&gt;render_&lt;/font&gt;&lt;/font&gt;&lt;/div&gt;&lt;div&gt;&lt;font size=&quot;3&quot;&gt;&lt;font style=&quot;font-size: 24px&quot;&gt;environment&lt;/font&gt;&lt;/font&gt;&lt;/div&gt;" style="rounded=1;whiteSpace=wrap;html=1;fillColor=#FFFFFF;strokeWidth=3;" vertex="1" parent="1">
          <mxGeometry x="550" y="230" width="160" height="60" as="geometry" />
        </mxCell>
        <mxCell id="N--YdgX6oC7Mbpfn2w94-34" style="edgeStyle=orthogonalEdgeStyle;rounded=0;orthogonalLoop=1;jettySize=auto;html=1;entryX=0.5;entryY=0;entryDx=0;entryDy=0;entryPerimeter=0;strokeWidth=3;" edge="1" parent="1" source="N--YdgX6oC7Mbpfn2w94-21" target="N--YdgX6oC7Mbpfn2w94-4">
          <mxGeometry relative="1" as="geometry" />
        </mxCell>
        <mxCell id="N--YdgX6oC7Mbpfn2w94-21" value="&lt;div&gt;&lt;font size=&quot;3&quot;&gt;&lt;font style=&quot;font-size: 24px&quot;&gt;set_physics&lt;/font&gt;&lt;/font&gt;&lt;/div&gt;" style="rounded=1;whiteSpace=wrap;html=1;fillColor=#FFFFFF;strokeWidth=3;" vertex="1" parent="1">
          <mxGeometry x="340" y="230" width="160" height="60" as="geometry" />
        </mxCell>
        <mxCell id="N--YdgX6oC7Mbpfn2w94-35" style="edgeStyle=orthogonalEdgeStyle;rounded=0;orthogonalLoop=1;jettySize=auto;html=1;entryX=0.855;entryY=0.145;entryDx=0;entryDy=0;entryPerimeter=0;strokeWidth=3;" edge="1" parent="1" source="N--YdgX6oC7Mbpfn2w94-23" target="N--YdgX6oC7Mbpfn2w94-4">
          <mxGeometry relative="1" as="geometry" />
        </mxCell>
        <mxCell id="N--YdgX6oC7Mbpfn2w94-23" value="&lt;div&gt;&lt;font size=&quot;3&quot;&gt;&lt;font style=&quot;font-size: 24px&quot;&gt;spawn_player&lt;/font&gt;&lt;/font&gt;&lt;/div&gt;" style="rounded=1;whiteSpace=wrap;html=1;fillColor=#FFFFFF;strokeWidth=3;" vertex="1" parent="1">
          <mxGeometry x="340" y="300" width="160" height="60" as="geometry" />
        </mxCell>
        <mxCell id="N--YdgX6oC7Mbpfn2w94-36" style="edgeStyle=orthogonalEdgeStyle;rounded=0;orthogonalLoop=1;jettySize=auto;html=1;exitX=0;exitY=0.5;exitDx=0;exitDy=0;entryX=1;entryY=0.5;entryDx=0;entryDy=0;entryPerimeter=0;strokeWidth=3;" edge="1" parent="1" source="N--YdgX6oC7Mbpfn2w94-24" target="N--YdgX6oC7Mbpfn2w94-4">
          <mxGeometry relative="1" as="geometry" />
        </mxCell>
        <mxCell id="N--YdgX6oC7Mbpfn2w94-24" value="&lt;div&gt;&lt;font size=&quot;3&quot;&gt;&lt;font style=&quot;font-size: 24px&quot;&gt;spawn_npc&lt;/font&gt;&lt;/font&gt;&lt;/div&gt;" style="rounded=1;whiteSpace=wrap;html=1;fillColor=#FFFFFF;strokeWidth=3;" vertex="1" parent="1">
          <mxGeometry x="340" y="370" width="160" height="60" as="geometry" />
        </mxCell>
        <mxCell id="N--YdgX6oC7Mbpfn2w94-37" style="edgeStyle=orthogonalEdgeStyle;rounded=0;orthogonalLoop=1;jettySize=auto;html=1;exitX=0;exitY=0.5;exitDx=0;exitDy=0;entryX=0.855;entryY=0.855;entryDx=0;entryDy=0;entryPerimeter=0;strokeWidth=3;" edge="1" parent="1" source="N--YdgX6oC7Mbpfn2w94-25" target="N--YdgX6oC7Mbpfn2w94-4">
          <mxGeometry relative="1" as="geometry" />
        </mxCell>
        <mxCell id="N--YdgX6oC7Mbpfn2w94-25" value="&lt;div&gt;&lt;font size=&quot;3&quot;&gt;&lt;font style=&quot;font-size: 24px&quot;&gt;load_game_&lt;/font&gt;&lt;/font&gt;&lt;/div&gt;&lt;div&gt;&lt;font size=&quot;3&quot;&gt;&lt;font style=&quot;font-size: 24px&quot;&gt;object&lt;br&gt;&lt;/font&gt;&lt;/font&gt;&lt;/div&gt;" style="rounded=1;whiteSpace=wrap;html=1;fillColor=#FFFFFF;strokeWidth=3;" vertex="1" parent="1">
          <mxGeometry x="340" y="440" width="160" height="60" as="geometry" />
        </mxCell>
        <mxCell id="N--YdgX6oC7Mbpfn2w94-32" style="edgeStyle=orthogonalEdgeStyle;rounded=0;orthogonalLoop=1;jettySize=auto;html=1;exitX=0;exitY=0.5;exitDx=0;exitDy=0;entryX=1;entryY=0.5;entryDx=0;entryDy=0;strokeWidth=3;" edge="1" parent="1" source="N--YdgX6oC7Mbpfn2w94-26" target="N--YdgX6oC7Mbpfn2w94-31">
          <mxGeometry relative="1" as="geometry" />
        </mxCell>
        <mxCell id="N--YdgX6oC7Mbpfn2w94-26" value="&lt;font size=&quot;3&quot;&gt;&lt;font style=&quot;font-size: 24px&quot;&gt;get_quest&lt;/font&gt;&lt;/font&gt;" style="rounded=1;whiteSpace=wrap;html=1;fillColor=#FFFFFF;strokeWidth=3;" vertex="1" parent="1">
          <mxGeometry x="340" y="510" width="160" height="60" as="geometry" />
        </mxCell>
        <mxCell id="N--YdgX6oC7Mbpfn2w94-38" style="edgeStyle=orthogonalEdgeStyle;rounded=0;orthogonalLoop=1;jettySize=auto;html=1;exitX=0.5;exitY=0;exitDx=0;exitDy=0;entryX=0.5;entryY=1;entryDx=0;entryDy=0;entryPerimeter=0;strokeWidth=3;" edge="1" parent="1" source="N--YdgX6oC7Mbpfn2w94-31" target="N--YdgX6oC7Mbpfn2w94-4">
          <mxGeometry relative="1" as="geometry" />
        </mxCell>
        <mxCell id="N--YdgX6oC7Mbpfn2w94-31" value="&lt;div&gt;&lt;font size=&quot;3&quot;&gt;&lt;font style=&quot;font-size: 24px&quot;&gt;generate_&lt;/font&gt;&lt;/font&gt;&lt;/div&gt;&lt;div&gt;&lt;font size=&quot;3&quot;&gt;&lt;font style=&quot;font-size: 24px&quot;&gt;quest&lt;/font&gt;&lt;/font&gt;&lt;/div&gt;" style="rounded=1;whiteSpace=wrap;html=1;fillColor=#FFFFFF;strokeWidth=3;" vertex="1" parent="1">
          <mxGeometry x="125" y="510" width="160" height="60" as="geometry" />
        </mxCell>
      </root>
    </mxGraphModel>
  </diagram>
</mxfile>
